<svg xmlns="http://www.w3.org/2000/svg" width="64" height="64" viewBox="0 0 64 64" role="img" aria-label="Baseball player icon">
  <defs>
    <linearGradient id="baseball-bg" x1="8" y1="6" x2="56" y2="58" gradientUnits="userSpaceOnUse">
      <stop offset="0" stop-color="#38bdf8"/>
      <stop offset="1" stop-color="#16a34a"/>
    </linearGradient>
    <linearGradient id="baseball-ball" x1="18" y1="12" x2="48" y2="50" gradientUnits="userSpaceOnUse">
      <stop offset="0" stop-color="#ffffff"/>
      <stop offset="1" stop-color="#dbeafe"/>
    </linearGradient>
  </defs>
  <rect width="64" height="64" rx="18" fill="url(#baseball-bg)"/>
  <path fill="#ffffff" opacity=".24" d="M10 20c8-7 17-9 27-6 6.6 2 12.2 1.3 17-2v13c-5.7 3.2-12.3 3.8-20 1.6-8.4-2.4-16.4-.5-24 5.4z"/>
  <path fill="#7c2d12" d="M39.2 13.2 50.8 24.8 28.4 47.2 16.8 35.6z"/>
  <path fill="#facc15" d="M42.2 10.2 53.8 21.8 49.4 26.2 37.8 14.6z"/>
  <circle cx="30" cy="34" r="15" fill="url(#baseball-ball)"/>
  <path fill="none" stroke="#ef4444" stroke-width="2.5" stroke-linecap="round" d="M20.5 22.8c5 4.8 7 11.9 5.2 18.7M39.5 25.5c-4.8 5.2-6.5 11.7-4.7 18"/>
  <path fill="none" stroke="#ef4444" stroke-width="2" stroke-linecap="round" d="m22 28 4-2m-3 7 4-2m-2 7 4-2m10-6-4-2m2 7-4-2m1 7-4-2"/>
  <path fill="#0f172a" opacity=".2" d="M14 48h36v5H14z"/>
</svg>
