<svg xmlns="http://www.w3.org/2000/svg" width="64" height="64" viewBox="0 0 64 64" role="img" aria-label="Female singer icon">
  <defs>
    <linearGradient id="female-singer-bg" x1="8" y1="7" x2="56" y2="58" gradientUnits="userSpaceOnUse">
      <stop offset="0" stop-color="#fb7185"/>
      <stop offset="1" stop-color="#8b5cf6"/>
    </linearGradient>
    <linearGradient id="female-singer-mic" x1="21" y1="15" x2="42" y2="48" gradientUnits="userSpaceOnUse">
      <stop offset="0" stop-color="#fff7ed"/>
      <stop offset="1" stop-color="#fecdd3"/>
    </linearGradient>
  </defs>
  <rect width="64" height="64" rx="18" fill="url(#female-singer-bg)"/>
  <path fill="#ffffff" opacity=".24" d="M10 23c6.5-6.5 15.8-7.8 28-4 6.4 2 11.7 1 16-3v12c-5.4 3.9-12 4.7-19.8 2.5-9.2-2.6-17.3-.8-24.2 5.5z"/>
  <path fill="#fde68a" d="m16 15 1.3 2.7 3 .4-2.1 2.1.5 3-2.7-1.4-2.7 1.4.5-3-2.1-2.1 3-.4z"/>
  <path fill="#ffffff" d="M46.5 42.5a7.5 7.5 0 1 1-15 0 7.5 7.5 0 0 1 15 0z" opacity=".92"/>
  <path fill="#7c3aed" d="M40 40.5c2.5 1.2 4.1 3.1 4.9 5.5h-9.8c.8-2.4 2.4-4.3 4.9-5.5z"/>
  <path fill="#111827" d="M27 48h12v5H27z"/>
  <path fill="#f8fafc" d="M31 38h4v12h-4z"/>
  <path fill="url(#female-singer-mic)" d="M24 14c0-4.7 3.8-8.5 8.5-8.5S41 9.3 41 14v14c0 4.7-3.8 8.5-8.5 8.5S24 32.7 24 28z"/>
  <path fill="#9f1239" opacity=".16" d="M24 18h17v4H24zm0 7h17v4H24z"/>
  <path fill="#2d1b69" d="M20 25h4v3c0 4.7 3.8 8.5 8.5 8.5S41 32.7 41 28v-3h4v3c0 6.9-5.6 12.5-12.5 12.5S20 34.9 20 28z"/>
</svg>
