<svg xmlns="http://www.w3.org/2000/svg" width="64" height="64" viewBox="0 0 64 64" role="img" aria-label="Male singer icon">
  <defs>
    <linearGradient id="male-singer-bg" x1="8" y1="7" x2="56" y2="58" gradientUnits="userSpaceOnUse">
      <stop offset="0" stop-color="#38bdf8"/>
      <stop offset="1" stop-color="#7c3aed"/>
    </linearGradient>
    <linearGradient id="male-singer-mic" x1="24" y1="10" x2="41" y2="44" gradientUnits="userSpaceOnUse">
      <stop offset="0" stop-color="#f8fafc"/>
      <stop offset="1" stop-color="#cbd5e1"/>
    </linearGradient>
  </defs>
  <rect width="64" height="64" rx="18" fill="url(#male-singer-bg)"/>
  <path fill="#ffffff" opacity=".26" d="M12 19c8-8 18-10 30-7 5 1.2 9.2.8 12-1.3V22c-4.8 2.7-10.5 3.2-17 1.5-9.2-2.3-17.5-.8-25 4.5z"/>
  <circle cx="22" cy="45" r="4" fill="#fef3c7"/>
  <circle cx="45" cy="18" r="3" fill="#dbeafe"/>
  <path fill="#1f2937" d="M27 48h14v5H27z"/>
  <path fill="#e5e7eb" d="M32 38h4v12h-4z"/>
  <path fill="url(#male-singer-mic)" d="M25 15c0-4.4 3.6-8 8-8s8 3.6 8 8v13c0 4.4-3.6 8-8 8s-8-3.6-8-8z"/>
  <path fill="#0f172a" opacity=".2" d="M25 19h16v4H25zm0 7h16v4H25z"/>
  <path fill="#111827" d="M21 25h4v3c0 4.4 3.6 8 8 8s8-3.6 8-8v-3h4v3c0 6.6-5.4 12-12 12s-12-5.4-12-12z"/>
  <path fill="#facc15" d="m47 36 1.5 3 3.3.5-2.4 2.3.6 3.2-3-1.6-3 1.6.6-3.2-2.4-2.3 3.3-.5z"/>
</svg>
