<svg xmlns="http://www.w3.org/2000/svg" width="64" height="64" viewBox="0 0 64 64" role="img" aria-label="Progressive politician icon">
  <defs>
    <linearGradient id="progressive-podium" x1="20" y1="28" x2="44" y2="56" gradientUnits="userSpaceOnUse">
      <stop offset="0" stop-color="#ffffff"/>
      <stop offset="1" stop-color="#d7fff1"/>
    </linearGradient>
  </defs>
  <rect width="64" height="64" rx="18" fill="#004ea2"/>
  <circle cx="32" cy="22" r="9" fill="#ffe1c7"/>
  <path fill="#1f2937" d="M23 22c.5-7 4.8-11 10.3-10.7 5 .3 8.2 4.1 8.7 9.3-4.1-2.3-8.7-2.9-13.3-1.5-2.3.7-4 1.7-5.7 2.9z"/>
  <path fill="#152033" d="M28 23.5a1.6 1.6 0 1 0 0-3.2 1.6 1.6 0 0 0 0 3.2zm8 0a1.6 1.6 0 1 0 0-3.2 1.6 1.6 0 0 0 0 3.2z"/>
  <path fill="#e85a84" d="M29.5 28.5c1.5.9 3.5.9 5 0 .6-.3 1.1.4.6.9-1.7 1.7-4.5 1.7-6.2 0-.5-.5 0-1.2.6-.9z"/>
  <path fill="#edf7ff" d="M20 39c2.6-6.2 6.8-9.2 12-9.2s9.4 3 12 9.2v4H20z"/>
  <path fill="#0f766e" d="M29 31h6l-1.8 6.5L32 36l-1.2 1.5z"/>
  <path fill="url(#progressive-podium)" d="M17 42h30l3 12H14z"/>
  <path fill="#0f766e" d="M23 47h18v3H23z"/>
  <path fill="#ffffff" d="M45.5 13.4c4.8.8 7.6 4 7.5 8.8-4.9-.4-8.3-3.5-8.9-8.2-.1-.5.8-.7 1.4-.6z"/>
  <path fill="#bcf7d2" d="M45 23c-3.1-3.7-2.9-8 .4-11.3 3.2 3.6 3.1 8-.4 11.3z"/>
</svg>
