<svg xmlns="http://www.w3.org/2000/svg" width="64" height="64" viewBox="0 0 64 64" role="img" aria-label="Rude Miss Young-ae icon">
  <defs>
    <linearGradient id="youngae-bg" x1="8" y1="6" x2="56" y2="58" gradientUnits="userSpaceOnUse">
      <stop offset="0" stop-color="#f472b6"/>
      <stop offset="1" stop-color="#7c3aed"/>
    </linearGradient>
  </defs>
  <rect width="64" height="64" rx="18" fill="url(#youngae-bg)"/>
  <path fill="#ffffff" opacity=".22" d="M11 18c8-7 17.5-9 28-5.4 5.8 2 10.8 1.3 15-2.2v12.8c-5 3.4-11.4 4-19 1.5-8.5-2.8-16.5-.9-24 5.3z"/>
  <rect x="16" y="18" width="32" height="38" rx="4" fill="#f8fafc"/>
  <path fill="#c4b5fd" d="M16 22a4 4 0 0 1 4-4h24a4 4 0 0 1 4 4v7H16z"/>
  <path fill="#1f2937" d="M22 34h20v3H22zm0 7h16v3H22zm0 7h12v3H22z"/>
  <circle cx="44" cy="42" r="10" fill="#fef3c7"/>
  <path fill="#111827" d="M39 40h3v3h-3zm7 0h3v3h-3z"/>
  <path fill="#ef4444" d="M41 47h7v3h-7z"/>
  <path fill="#f97316" d="M42 31h4l1 5h-6z"/>
  <path fill="#22c55e" d="M12 50h12v6H12z"/>
</svg>
